# xmcd CD database file
#
# Track frame offsets:
#	150
#	26217
#	43165
#
# Disc length: 920 seconds
#
# Revision: 1
# Processed by: cddbd v1.5PL3 Copyright (c) Steve Scherf et al.
# Submitted via: CDex 1.51
#
DISCID=23039603
DTITLE=鈴木結女 - それぞれの明日へ
DYEAR=1900
DGENRE=不明
TTITLE0=それぞれの明日へ
TTITLE1=Welcome Home -LIVE-
TTITLE2=それぞれの明日へ (オリジナル・カラオケ)
EXTD=
EXTT0=
EXTT1=
EXTT2=
PLAYORDER=
